<?xml version="1.0" encoding="utf-8"?>
<!-- grahn.us brand logo: white { DG } monogram on a black rounded tile, matching the site header. -->
<svg version="1.1" xmlns="http://www.w3.org/2000/svg" xmlns:xlink="http://www.w3.org/1999/xlink"
	 viewBox="-10.83 -18.4 160 160" xml:space="preserve">
	<rect x="-10.83" y="-18.4" width="160" height="160" rx="12" fill="#000000"/>
	<g id="Logo">
		<g>
			<path transform="scale(0.8), translate(10, 5)" fill="#FFFFFF" d="M102.65,36.965c0,4.45-0.665,8.451-1.994,12.005c-1.33,3.555-3.201,6.58-5.616,9.075
				c-2.415,2.496-5.304,4.409-8.668,5.738c-3.364,1.33-7.095,1.994-11.191,1.994H54.183V8.194h20.999
				c4.096,0,7.827,0.665,11.191,1.994c3.364,1.33,6.253,3.242,8.668,5.738c2.415,2.497,4.286,5.521,5.616,9.075
				C101.985,28.556,102.65,32.544,102.65,36.965z M98.337,36.965c0-4.015-0.557-7.596-1.668-10.743
				c-1.113-3.147-2.68-5.806-4.7-7.976c-2.021-2.17-4.456-3.826-7.305-4.965c-2.849-1.14-6.01-1.709-9.482-1.709H58.375v50.828
				h16.807c3.472,0,6.633-0.569,9.482-1.709c2.849-1.139,5.283-2.794,7.305-4.965c2.021-2.17,3.587-4.829,4.7-7.976
				C97.78,44.603,98.337,41.008,98.337,36.965z"/>
			<path transform="scale(0.8), translate(-295, 75)" fill="#FFFFFF" d="M383.317,63.051c1.98,0,3.785-0.102,5.412-0.306c1.628-0.203,3.141-0.508,4.538-0.915
				c1.396-0.407,2.727-0.902,3.988-1.485c1.261-0.583,2.529-1.241,3.805-1.974V42.866h-11.069c-0.299,0-0.549-0.095-0.753-0.285
				c-0.203-0.189-0.305-0.407-0.305-0.651v-2.279h15.911v20.469c-1.438,1.004-2.93,1.9-4.476,2.686
				c-1.547,0.787-3.202,1.444-4.965,1.974c-1.765,0.529-3.663,0.936-5.697,1.221c-2.035,0.285-4.26,0.428-6.674,0.428
				c-4.151,0-7.943-0.698-11.375-2.096s-6.375-3.378-8.83-5.942c-2.456-2.563-4.361-5.663-5.718-9.299
				c-1.357-3.635-2.035-7.677-2.035-12.127c0-4.449,0.678-8.485,2.035-12.106c1.356-3.622,3.282-6.715,5.778-9.278
				c2.496-2.564,5.527-4.544,9.096-5.941c3.566-1.397,7.562-2.096,11.984-2.096c2.197,0,4.226,0.149,6.084,0.448
				c1.857,0.299,3.587,0.74,5.188,1.323c1.601,0.583,3.093,1.302,4.477,2.157s2.712,1.838,3.988,2.95l-1.1,1.791
				c-0.244,0.407-0.583,0.611-1.017,0.611c-0.244,0-0.476-0.054-0.692-0.163c-0.406-0.163-0.997-0.542-1.77-1.139
				c-0.773-0.597-1.818-1.221-3.134-1.872c-1.316-0.651-2.965-1.234-4.944-1.75c-1.98-0.515-4.382-0.773-7.203-0.773
				c-3.744,0-7.122,0.597-10.133,1.791c-3.012,1.194-5.582,2.903-7.712,5.127c-2.13,2.225-3.771,4.938-4.924,8.139
				c-1.153,3.202-1.729,6.796-1.729,10.784c0,4.07,0.583,7.719,1.75,10.947c1.166,3.229,2.801,5.961,4.903,8.2
				s4.625,3.955,7.569,5.148C376.515,62.454,379.763,63.051,383.317,63.051z"/>
		</g>
		<g>
			<path fill="#FFFFFF" d="M22.439,87.875c-2.52,18,1.44,25.799,14.159,31.079l-0.84,3.36c-16.919-2.88-25.919-12.72-23.399-34.439
				c1.2-10.679,0.96-23.039-8.399-25.319v-1.92c9.359-2.28,9.6-14.64,8.399-25.319c-2.52-21.719,6.48-31.559,23.399-34.439
				l0.84,3.36C23.879,9.518,19.919,17.317,22.439,35.317c0.96,7.68-1.68,23.159-11.399,26.279
				C20.759,64.716,23.399,80.195,22.439,87.875z"/>
		</g>
		<g>
			<path transform="translate(-545, 0)" fill="#FFFFFF" d="M661.015,35.317c2.521-18-1.56-25.799-14.159-31.079l0.72-3.36c16.92,2.88,25.919,12.72,23.52,34.439
				c-1.32,10.679-1.08,23.039,8.279,25.319v1.92c-9.359,2.28-9.6,14.64-8.279,25.319c2.399,21.719-6.6,31.559-23.52,34.439
				l-0.72-3.36c12.6-5.279,16.68-13.079,14.159-31.079c-1.079-7.68,1.56-23.159,11.399-26.279
				C662.574,58.476,659.936,42.997,661.015,35.317z"/>
		</g>
	</g>
</svg>
